<svg width="1200" height="1200" viewBox="0 0 1200 1200" fill="none" xmlns="http://www.w3.org/2000/svg">
<g clip-path="url(#clip0_1_2)">
<path d="M-37 755H1236V1212H-37V755Z" fill="#FFF3BA"/>
<rect x="316" y="1000" width="567" height="480.803" fill="#C4C4C4"/>
<path opacity="0.1" d="M297.375 910H288.328V878.453H253.922V910H244.922V841.75H253.922V871.094H288.328V841.75H297.375V910ZM333.047 910.938C326.172 910.938 320.578 908.688 316.266 904.188C311.953 899.656 309.797 893.609 309.797 886.047V884.453C309.797 879.422 310.75 874.938 312.656 871C314.594 867.031 317.281 863.938 320.719 861.719C324.188 859.469 327.938 858.344 331.969 858.344C338.562 858.344 343.688 860.516 347.344 864.859C351 869.203 352.828 875.422 352.828 883.516V887.125H318.469C318.594 892.125 320.047 896.172 322.828 899.266C325.641 902.328 329.203 903.859 333.516 903.859C336.578 903.859 339.172 903.234 341.297 901.984C343.422 900.734 345.281 899.078 346.875 897.016L352.172 901.141C347.922 907.672 341.547 910.938 333.047 910.938ZM331.969 865.469C328.469 865.469 325.531 866.75 323.156 869.312C320.781 871.844 319.312 875.406 318.75 880H344.156V879.344C343.906 874.938 342.719 871.531 340.594 869.125C338.469 866.688 335.594 865.469 331.969 865.469ZM405.75 885.203C405.75 892.922 403.984 899.141 400.453 903.859C396.922 908.578 392.141 910.938 386.109 910.938C379.953 910.938 375.109 908.984 371.578 905.078V929.5H362.906V859.281H370.828L371.25 864.906C374.781 860.531 379.688 858.344 385.969 858.344C392.062 858.344 396.875 860.641 400.406 865.234C403.969 869.828 405.75 876.219 405.75 884.406V885.203ZM397.078 884.219C397.078 878.5 395.859 873.984 393.422 870.672C390.984 867.359 387.641 865.703 383.391 865.703C378.141 865.703 374.203 868.031 371.578 872.688V896.922C374.172 901.547 378.141 903.859 383.484 903.859C387.641 903.859 390.938 902.219 393.375 898.938C395.844 895.625 397.078 890.719 397.078 884.219ZM448.125 910C447.625 909 447.219 907.219 446.906 904.656C442.875 908.844 438.062 910.938 432.469 910.938C427.469 910.938 423.359 909.531 420.141 906.719C416.953 903.875 415.359 900.281 415.359 895.938C415.359 890.656 417.359 886.562 421.359 883.656C425.391 880.719 431.047 879.25 438.328 879.25H446.766V875.266C446.766 872.234 445.859 869.828 444.047 868.047C442.234 866.234 439.562 865.328 436.031 865.328C432.938 865.328 430.344 866.109 428.25 867.672C426.156 869.234 425.109 871.125 425.109 873.344H416.391C416.391 870.812 417.281 868.375 419.062 866.031C420.875 863.656 423.312 861.781 426.375 860.406C429.469 859.031 432.859 858.344 436.547 858.344C442.391 858.344 446.969 859.812 450.281 862.75C453.594 865.656 455.312 869.672 455.438 874.797V898.141C455.438 902.797 456.031 906.5 457.219 909.25V910H448.125ZM433.734 903.391C436.453 903.391 439.031 902.688 441.469 901.281C443.906 899.875 445.672 898.047 446.766 895.797V885.391H439.969C429.344 885.391 424.031 888.5 424.031 894.719C424.031 897.438 424.938 899.562 426.75 901.094C428.562 902.625 430.891 903.391 433.734 903.391ZM491.297 862.188C497.672 862.188 502.766 864.328 506.578 868.609C510.422 872.859 512.344 878.469 512.344 885.438V886.234C512.344 891.016 511.422 895.297 509.578 899.078C507.734 902.828 505.078 905.75 501.609 907.844C498.172 909.906 494.203 910.938 489.703 910.938C482.891 910.938 477.406 908.672 473.25 904.141C469.094 899.578 467.016 893.469 467.016 885.812V881.594C467.016 870.938 468.984 862.469 472.922 856.188C476.891 849.906 482.734 846.078 490.453 844.703C494.828 843.922 497.781 842.969 499.312 841.844C500.844 840.719 501.609 839.172 501.609 837.203H508.734C508.734 841.109 507.844 844.156 506.062 846.344C504.312 848.531 501.5 850.078 497.625 850.984L491.156 852.438C486 853.656 482.125 855.719 479.531 858.625C476.969 861.5 475.297 865.344 474.516 870.156C479.109 864.844 484.703 862.188 491.297 862.188ZM489.609 869.312C485.359 869.312 481.984 870.75 479.484 873.625C476.984 876.469 475.734 880.422 475.734 885.484V886.234C475.734 891.672 476.984 895.984 479.484 899.172C482.016 902.328 485.422 903.906 489.703 903.906C494.016 903.906 497.422 902.312 499.922 899.125C502.422 895.938 503.672 891.281 503.672 885.156C503.672 880.375 502.406 876.547 499.875 873.672C497.375 870.766 493.953 869.312 489.609 869.312ZM519.797 884.172C519.797 879.203 520.766 874.734 522.703 870.766C524.672 866.797 527.391 863.734 530.859 861.578C534.359 859.422 538.344 858.344 542.812 858.344C549.719 858.344 555.297 860.734 559.547 865.516C563.828 870.297 565.969 876.656 565.969 884.594V885.203C565.969 890.141 565.016 894.578 563.109 898.516C561.234 902.422 558.531 905.469 555 907.656C551.5 909.844 547.469 910.938 542.906 910.938C536.031 910.938 530.453 908.547 526.172 903.766C521.922 898.984 519.797 892.656 519.797 884.781V884.172ZM528.516 885.203C528.516 890.828 529.812 895.344 532.406 898.75C535.031 902.156 538.531 903.859 542.906 903.859C547.312 903.859 550.812 902.141 553.406 898.703C556 895.234 557.297 890.391 557.297 884.172C557.297 878.609 555.969 874.109 553.312 870.672C550.688 867.203 547.188 865.469 542.812 865.469C538.531 865.469 535.078 867.172 532.453 870.578C529.828 873.984 528.516 878.859 528.516 885.203ZM615.141 910H606.422V891.625C602.609 892.625 598.703 893.125 594.703 893.125C588.359 893.125 583.516 891.5 580.172 888.25C576.859 885 575.172 880.375 575.109 874.375V859.234H583.781V874.656C583.938 882.219 587.578 886 594.703 886C598.703 886 602.609 885.5 606.422 884.5V859.281H615.141V910ZM660.375 910C659.875 909 659.469 907.219 659.156 904.656C655.125 908.844 650.312 910.938 644.719 910.938C639.719 910.938 635.609 909.531 632.391 906.719C629.203 903.875 627.609 900.281 627.609 895.938C627.609 890.656 629.609 886.562 633.609 883.656C637.641 880.719 643.297 879.25 650.578 879.25H659.016V875.266C659.016 872.234 658.109 869.828 656.297 868.047C654.484 866.234 651.812 865.328 648.281 865.328C645.188 865.328 642.594 866.109 640.5 867.672C638.406 869.234 637.359 871.125 637.359 873.344H628.641C628.641 870.812 629.531 868.375 631.312 866.031C633.125 863.656 635.562 861.781 638.625 860.406C641.719 859.031 645.109 858.344 648.797 858.344C654.641 858.344 659.219 859.812 662.531 862.75C665.844 865.656 667.562 869.672 667.688 874.797V898.141C667.688 902.797 668.281 906.5 669.469 909.25V910H660.375ZM645.984 903.391C648.703 903.391 651.281 902.688 653.719 901.281C656.156 899.875 657.922 898.047 659.016 895.797V885.391H652.219C641.594 885.391 636.281 888.5 636.281 894.719C636.281 897.438 637.188 899.562 639 901.094C640.812 902.625 643.141 903.391 645.984 903.391ZM720.047 859.281V910H711.328V890.266H698.25L686.297 910H676.922L689.672 888.953C686.422 887.766 683.922 885.938 682.172 883.469C680.453 880.969 679.594 878.062 679.594 874.75C679.594 870.125 681.328 866.406 684.797 863.594C688.266 860.75 692.906 859.312 698.719 859.281H720.047ZM688.312 874.844C688.312 877.312 689.156 879.312 690.844 880.844C692.531 882.344 694.766 883.109 697.547 883.141H711.328V866.312H698.859C695.641 866.312 693.078 867.109 691.172 868.703C689.266 870.266 688.312 872.312 688.312 874.844ZM785.672 873.156C785.672 870.781 784.766 868.906 782.953 867.531C781.141 866.125 778.656 865.422 775.5 865.422C772.438 865.422 769.875 866.219 767.812 867.812C765.781 869.406 764.766 871.281 764.766 873.438H756.141C756.141 869.031 757.984 865.422 761.672 862.609C765.359 859.797 769.969 858.391 775.5 858.391C781.438 858.391 786.062 859.672 789.375 862.234C792.688 864.766 794.344 868.391 794.344 873.109C794.344 875.391 793.656 877.484 792.281 879.391C790.906 881.297 788.953 882.812 786.422 883.938C792.328 885.938 795.281 889.875 795.281 895.75C795.281 900.406 793.484 904.094 789.891 906.812C786.297 909.531 781.5 910.891 775.5 910.891C769.656 910.891 764.828 909.469 761.016 906.625C757.234 903.75 755.344 899.875 755.344 895H763.969C763.969 897.469 765.062 899.594 767.25 901.375C769.469 903.125 772.219 904 775.5 904C778.812 904 781.484 903.234 783.516 901.703C785.547 900.172 786.562 898.188 786.562 895.75C786.562 892.906 785.703 890.875 783.984 889.656C782.297 888.406 779.656 887.781 776.062 887.781H767.391V880.469H776.812C782.719 880.312 785.672 877.875 785.672 873.156ZM804.234 884.172C804.234 879.203 805.203 874.734 807.141 870.766C809.109 866.797 811.828 863.734 815.297 861.578C818.797 859.422 822.781 858.344 827.25 858.344C834.156 858.344 839.734 860.734 843.984 865.516C848.266 870.297 850.406 876.656 850.406 884.594V885.203C850.406 890.141 849.453 894.578 847.547 898.516C845.672 902.422 842.969 905.469 839.438 907.656C835.938 909.844 831.906 910.938 827.344 910.938C820.469 910.938 814.891 908.547 810.609 903.766C806.359 898.984 804.234 892.656 804.234 884.781V884.172ZM812.953 885.203C812.953 890.828 814.25 895.344 816.844 898.75C819.469 902.156 822.969 903.859 827.344 903.859C831.75 903.859 835.25 902.141 837.844 898.703C840.438 895.234 841.734 890.391 841.734 884.172C841.734 878.609 840.406 874.109 837.75 870.672C835.125 867.203 831.625 865.469 827.25 865.469C822.969 865.469 819.516 867.172 816.891 870.578C814.266 873.984 812.953 878.859 812.953 885.203ZM902.719 910H894.047V888.344H870.75V910H862.031V859.281H870.75V881.266H894.047V859.281H902.719V910ZM948 910C947.5 909 947.094 907.219 946.781 904.656C942.75 908.844 937.938 910.938 932.344 910.938C927.344 910.938 923.234 909.531 920.016 906.719C916.828 903.875 915.234 900.281 915.234 895.938C915.234 890.656 917.234 886.562 921.234 883.656C925.266 880.719 930.922 879.25 938.203 879.25H946.641V875.266C946.641 872.234 945.734 869.828 943.922 868.047C942.109 866.234 939.438 865.328 935.906 865.328C932.812 865.328 930.219 866.109 928.125 867.672C926.031 869.234 924.984 871.125 924.984 873.344H916.266C916.266 870.812 917.156 868.375 918.938 866.031C920.75 863.656 923.188 861.781 926.25 860.406C929.344 859.031 932.734 858.344 936.422 858.344C942.266 858.344 946.844 859.812 950.156 862.75C953.469 865.656 955.188 869.672 955.312 874.797V898.141C955.312 902.797 955.906 906.5 957.094 909.25V910H948ZM933.609 903.391C936.328 903.391 938.906 902.688 941.344 901.281C943.781 899.875 945.547 898.047 946.641 895.797V885.391H939.844C929.219 885.391 923.906 888.5 923.906 894.719C923.906 897.438 924.812 899.562 926.625 901.094C928.438 902.625 930.766 903.391 933.609 903.391Z" fill="black"/>
<path opacity="0.1" d="M482.922 1108.28V1135H473.922V1066.75H499.094C506.562 1066.75 512.406 1068.66 516.625 1072.47C520.875 1076.28 523 1081.33 523 1087.61C523 1094.23 520.922 1099.34 516.766 1102.94C512.641 1106.5 506.719 1108.28 499 1108.28H482.922ZM482.922 1100.92H499.094C503.906 1100.92 507.594 1099.8 510.156 1097.55C512.719 1095.27 514 1091.98 514 1087.7C514 1083.64 512.719 1080.39 510.156 1077.95C507.594 1075.52 504.078 1074.25 499.609 1074.16H482.922V1100.92ZM530.172 1109.17C530.172 1104.2 531.141 1099.73 533.078 1095.77C535.047 1091.8 537.766 1088.73 541.234 1086.58C544.734 1084.42 548.719 1083.34 553.188 1083.34C560.094 1083.34 565.672 1085.73 569.922 1090.52C574.203 1095.3 576.344 1101.66 576.344 1109.59V1110.2C576.344 1115.14 575.391 1119.58 573.484 1123.52C571.609 1127.42 568.906 1130.47 565.375 1132.66C561.875 1134.84 557.844 1135.94 553.281 1135.94C546.406 1135.94 540.828 1133.55 536.547 1128.77C532.297 1123.98 530.172 1117.66 530.172 1109.78V1109.17ZM538.891 1110.2C538.891 1115.83 540.188 1120.34 542.781 1123.75C545.406 1127.16 548.906 1128.86 553.281 1128.86C557.688 1128.86 561.188 1127.14 563.781 1123.7C566.375 1120.23 567.672 1115.39 567.672 1109.17C567.672 1103.61 566.344 1099.11 563.688 1095.67C561.062 1092.2 557.562 1090.47 553.188 1090.47C548.906 1090.47 545.453 1092.17 542.828 1095.58C540.203 1098.98 538.891 1103.86 538.891 1110.2ZM609.484 1087.19C615.859 1087.19 620.953 1089.33 624.766 1093.61C628.609 1097.86 630.531 1103.47 630.531 1110.44V1111.23C630.531 1116.02 629.609 1120.3 627.766 1124.08C625.922 1127.83 623.266 1130.75 619.797 1132.84C616.359 1134.91 612.391 1135.94 607.891 1135.94C601.078 1135.94 595.594 1133.67 591.438 1129.14C587.281 1124.58 585.203 1118.47 585.203 1110.81V1106.59C585.203 1095.94 587.172 1087.47 591.109 1081.19C595.078 1074.91 600.922 1071.08 608.641 1069.7C613.016 1068.92 615.969 1067.97 617.5 1066.84C619.031 1065.72 619.797 1064.17 619.797 1062.2H626.922C626.922 1066.11 626.031 1069.16 624.25 1071.34C622.5 1073.53 619.688 1075.08 615.812 1075.98L609.344 1077.44C604.188 1078.66 600.312 1080.72 597.719 1083.62C595.156 1086.5 593.484 1090.34 592.703 1095.16C597.297 1089.84 602.891 1087.19 609.484 1087.19ZM607.797 1094.31C603.547 1094.31 600.172 1095.75 597.672 1098.62C595.172 1101.47 593.922 1105.42 593.922 1110.48V1111.23C593.922 1116.67 595.172 1120.98 597.672 1124.17C600.203 1127.33 603.609 1128.91 607.891 1128.91C612.203 1128.91 615.609 1127.31 618.109 1124.12C620.609 1120.94 621.859 1116.28 621.859 1110.16C621.859 1105.38 620.594 1101.55 618.062 1098.67C615.562 1095.77 612.141 1094.31 607.797 1094.31ZM637.984 1109.17C637.984 1104.2 638.953 1099.73 640.891 1095.77C642.859 1091.8 645.578 1088.73 649.047 1086.58C652.547 1084.42 656.531 1083.34 661 1083.34C667.906 1083.34 673.484 1085.73 677.734 1090.52C682.016 1095.3 684.156 1101.66 684.156 1109.59V1110.2C684.156 1115.14 683.203 1119.58 681.297 1123.52C679.422 1127.42 676.719 1130.47 673.188 1132.66C669.688 1134.84 665.656 1135.94 661.094 1135.94C654.219 1135.94 648.641 1133.55 644.359 1128.77C640.109 1123.98 637.984 1117.66 637.984 1109.78V1109.17ZM646.703 1110.2C646.703 1115.83 648 1120.34 650.594 1123.75C653.219 1127.16 656.719 1128.86 661.094 1128.86C665.5 1128.86 669 1127.14 671.594 1123.7C674.188 1120.23 675.484 1115.39 675.484 1109.17C675.484 1103.61 674.156 1099.11 671.5 1095.67C668.875 1092.2 665.375 1090.47 661 1090.47C656.719 1090.47 653.266 1092.17 650.641 1095.58C648.016 1098.98 646.703 1103.86 646.703 1110.2ZM731.688 1091.31H714.672V1135H706V1091.31H689.312V1084.28H731.688V1091.31Z" fill="black"/>
</g>
<defs>
<clipPath id="clip0_1_2">
<rect width="1200" height="1200" fill="white"/>
</clipPath>
</defs>
</svg>
