<svg width="1200" height="1200" viewBox="0 0 1200 1200" fill="none" xmlns="http://www.w3.org/2000/svg">
<g clip-path="url(#clip0_102_22)">
<path d="M1038 303H163V902H1038V303Z" fill="#FFFBE7"/>
<path d="M889 418.132H322V724.937H889V418.132Z" fill="#C4C4C4"/>
<path d="M598.583 449.625L3097 2382.56L-1895 2389L598.583 449.625Z" fill="#C4C4C4"/>
<path opacity="0.1" d="M483.922 590.281V617H474.922V548.75H500.094C507.562 548.75 513.406 550.656 517.625 554.469C521.875 558.281 524 563.328 524 569.609C524 576.234 521.922 581.344 517.766 584.938C513.641 588.5 507.719 590.281 500 590.281H483.922ZM483.922 582.922H500.094C504.906 582.922 508.594 581.797 511.156 579.547C513.719 577.266 515 573.984 515 569.703C515 565.641 513.719 562.391 511.156 559.953C508.594 557.516 505.078 556.25 500.609 556.156H483.922V582.922ZM531.172 591.172C531.172 586.203 532.141 581.734 534.078 577.766C536.047 573.797 538.766 570.734 542.234 568.578C545.734 566.422 549.719 565.344 554.188 565.344C561.094 565.344 566.672 567.734 570.922 572.516C575.203 577.297 577.344 583.656 577.344 591.594V592.203C577.344 597.141 576.391 601.578 574.484 605.516C572.609 609.422 569.906 612.469 566.375 614.656C562.875 616.844 558.844 617.938 554.281 617.938C547.406 617.938 541.828 615.547 537.547 610.766C533.297 605.984 531.172 599.656 531.172 591.781V591.172ZM539.891 592.203C539.891 597.828 541.188 602.344 543.781 605.75C546.406 609.156 549.906 610.859 554.281 610.859C558.688 610.859 562.188 609.141 564.781 605.703C567.375 602.234 568.672 597.391 568.672 591.172C568.672 585.609 567.344 581.109 564.688 577.672C562.062 574.203 558.562 572.469 554.188 572.469C549.906 572.469 546.453 574.172 543.828 577.578C541.203 580.984 539.891 585.859 539.891 592.203ZM610.484 569.188C616.859 569.188 621.953 571.328 625.766 575.609C629.609 579.859 631.531 585.469 631.531 592.438V593.234C631.531 598.016 630.609 602.297 628.766 606.078C626.922 609.828 624.266 612.75 620.797 614.844C617.359 616.906 613.391 617.938 608.891 617.938C602.078 617.938 596.594 615.672 592.438 611.141C588.281 606.578 586.203 600.469 586.203 592.812V588.594C586.203 577.938 588.172 569.469 592.109 563.188C596.078 556.906 601.922 553.078 609.641 551.703C614.016 550.922 616.969 549.969 618.5 548.844C620.031 547.719 620.797 546.172 620.797 544.203H627.922C627.922 548.109 627.031 551.156 625.25 553.344C623.5 555.531 620.688 557.078 616.812 557.984L610.344 559.438C605.188 560.656 601.312 562.719 598.719 565.625C596.156 568.5 594.484 572.344 593.703 577.156C598.297 571.844 603.891 569.188 610.484 569.188ZM608.797 576.312C604.547 576.312 601.172 577.75 598.672 580.625C596.172 583.469 594.922 587.422 594.922 592.484V593.234C594.922 598.672 596.172 602.984 598.672 606.172C601.203 609.328 604.609 610.906 608.891 610.906C613.203 610.906 616.609 609.312 619.109 606.125C621.609 602.938 622.859 598.281 622.859 592.156C622.859 587.375 621.594 583.547 619.062 580.672C616.562 577.766 613.141 576.312 608.797 576.312ZM638.984 591.172C638.984 586.203 639.953 581.734 641.891 577.766C643.859 573.797 646.578 570.734 650.047 568.578C653.547 566.422 657.531 565.344 662 565.344C668.906 565.344 674.484 567.734 678.734 572.516C683.016 577.297 685.156 583.656 685.156 591.594V592.203C685.156 597.141 684.203 601.578 682.297 605.516C680.422 609.422 677.719 612.469 674.188 614.656C670.688 616.844 666.656 617.938 662.094 617.938C655.219 617.938 649.641 615.547 645.359 610.766C641.109 605.984 638.984 599.656 638.984 591.781V591.172ZM647.703 592.203C647.703 597.828 649 602.344 651.594 605.75C654.219 609.156 657.719 610.859 662.094 610.859C666.5 610.859 670 609.141 672.594 605.703C675.188 602.234 676.484 597.391 676.484 591.172C676.484 585.609 675.156 581.109 672.5 577.672C669.875 574.203 666.375 572.469 662 572.469C657.719 572.469 654.266 574.172 651.641 577.578C649.016 580.984 647.703 585.859 647.703 592.203ZM732.688 573.312H715.672V617H707V573.312H690.312V566.281H732.688V573.312Z" fill="black"/>
<path opacity="0.1" d="M376.281 379H369.496V355.34H343.691V379H336.941V327.812H343.691V349.82H369.496V327.812H376.281V379ZM403.035 379.703C397.879 379.703 393.684 378.016 390.449 374.641C387.215 371.242 385.598 366.707 385.598 361.035V359.84C385.598 356.066 386.312 352.703 387.742 349.75C389.195 346.773 391.211 344.453 393.789 342.789C396.391 341.102 399.203 340.258 402.227 340.258C407.172 340.258 411.016 341.887 413.758 345.145C416.5 348.402 417.871 353.066 417.871 359.137V361.844H392.102C392.195 365.594 393.285 368.629 395.371 370.949C397.48 373.246 400.152 374.395 403.387 374.395C405.684 374.395 407.629 373.926 409.223 372.988C410.816 372.051 412.211 370.809 413.406 369.262L417.379 372.355C414.191 377.254 409.41 379.703 403.035 379.703ZM402.227 345.602C399.602 345.602 397.398 346.562 395.617 348.484C393.836 350.383 392.734 353.055 392.312 356.5H411.367V356.008C411.18 352.703 410.289 350.148 408.695 348.344C407.102 346.516 404.945 345.602 402.227 345.602ZM457.562 360.402C457.562 366.191 456.238 370.855 453.59 374.395C450.941 377.934 447.355 379.703 442.832 379.703C438.215 379.703 434.582 378.238 431.934 375.309V393.625H425.43V340.961H431.371L431.688 345.18C434.336 341.898 438.016 340.258 442.727 340.258C447.297 340.258 450.906 341.98 453.555 345.426C456.227 348.871 457.562 353.664 457.562 359.805V360.402ZM451.059 359.664C451.059 355.375 450.145 351.988 448.316 349.504C446.488 347.02 443.98 345.777 440.793 345.777C436.855 345.777 433.902 347.523 431.934 351.016V369.191C433.879 372.66 436.855 374.395 440.863 374.395C443.98 374.395 446.453 373.164 448.281 370.703C450.133 368.219 451.059 364.539 451.059 359.664ZM489.344 379C488.969 378.25 488.664 376.914 488.43 374.992C485.406 378.133 481.797 379.703 477.602 379.703C473.852 379.703 470.77 378.648 468.355 376.539C465.965 374.406 464.77 371.711 464.77 368.453C464.77 364.492 466.27 361.422 469.27 359.242C472.293 357.039 476.535 355.938 481.996 355.938H488.324V352.949C488.324 350.676 487.645 348.871 486.285 347.535C484.926 346.176 482.922 345.496 480.273 345.496C477.953 345.496 476.008 346.082 474.438 347.254C472.867 348.426 472.082 349.844 472.082 351.508H465.543C465.543 349.609 466.211 347.781 467.547 346.023C468.906 344.242 470.734 342.836 473.031 341.805C475.352 340.773 477.895 340.258 480.66 340.258C485.043 340.258 488.477 341.359 490.961 343.562C493.445 345.742 494.734 348.754 494.828 352.598V370.105C494.828 373.598 495.273 376.375 496.164 378.438V379H489.344ZM478.551 374.043C480.59 374.043 482.523 373.516 484.352 372.461C486.18 371.406 487.504 370.035 488.324 368.348V360.543H483.227C475.258 360.543 471.273 362.875 471.273 367.539C471.273 369.578 471.953 371.172 473.312 372.32C474.672 373.469 476.418 374.043 478.551 374.043ZM521.723 343.141C526.504 343.141 530.324 344.746 533.184 347.957C536.066 351.145 537.508 355.352 537.508 360.578V361.176C537.508 364.762 536.816 367.973 535.434 370.809C534.051 373.621 532.059 375.812 529.457 377.383C526.879 378.93 523.902 379.703 520.527 379.703C515.418 379.703 511.305 378.004 508.188 374.605C505.07 371.184 503.512 366.602 503.512 360.859V357.695C503.512 349.703 504.988 343.352 507.941 338.641C510.918 333.93 515.301 331.059 521.09 330.027C524.371 329.441 526.586 328.727 527.734 327.883C528.883 327.039 529.457 325.879 529.457 324.402H534.801C534.801 327.332 534.133 329.617 532.797 331.258C531.484 332.898 529.375 334.059 526.469 334.738L521.617 335.828C517.75 336.742 514.844 338.289 512.898 340.469C510.977 342.625 509.723 345.508 509.137 349.117C512.582 345.133 516.777 343.141 521.723 343.141ZM520.457 348.484C517.27 348.484 514.738 349.562 512.863 351.719C510.988 353.852 510.051 356.816 510.051 360.613V361.176C510.051 365.254 510.988 368.488 512.863 370.879C514.762 373.246 517.316 374.43 520.527 374.43C523.762 374.43 526.316 373.234 528.191 370.844C530.066 368.453 531.004 364.961 531.004 360.367C531.004 356.781 530.055 353.91 528.156 351.754C526.281 349.574 523.715 348.484 520.457 348.484ZM543.098 359.629C543.098 355.902 543.824 352.551 545.277 349.574C546.754 346.598 548.793 344.301 551.395 342.684C554.02 341.066 557.008 340.258 560.359 340.258C565.539 340.258 569.723 342.051 572.91 345.637C576.121 349.223 577.727 353.992 577.727 359.945V360.402C577.727 364.105 577.012 367.434 575.582 370.387C574.176 373.316 572.148 375.602 569.5 377.242C566.875 378.883 563.852 379.703 560.43 379.703C555.273 379.703 551.09 377.91 547.879 374.324C544.691 370.738 543.098 365.992 543.098 360.086V359.629ZM549.637 360.402C549.637 364.621 550.609 368.008 552.555 370.562C554.523 373.117 557.148 374.395 560.43 374.395C563.734 374.395 566.359 373.105 568.305 370.527C570.25 367.926 571.223 364.293 571.223 359.629C571.223 355.457 570.227 352.082 568.234 349.504C566.266 346.902 563.641 345.602 560.359 345.602C557.148 345.602 554.559 346.879 552.59 349.434C550.621 351.988 549.637 355.645 549.637 360.402ZM614.605 379H608.066V365.219C605.207 365.969 602.277 366.344 599.277 366.344C594.52 366.344 590.887 365.125 588.379 362.688C585.895 360.25 584.629 356.781 584.582 352.281V340.926H591.086V352.492C591.203 358.164 593.934 361 599.277 361C602.277 361 605.207 360.625 608.066 359.875V340.961H614.605V379ZM648.531 379C648.156 378.25 647.852 376.914 647.617 374.992C644.594 378.133 640.984 379.703 636.789 379.703C633.039 379.703 629.957 378.648 627.543 376.539C625.152 374.406 623.957 371.711 623.957 368.453C623.957 364.492 625.457 361.422 628.457 359.242C631.48 357.039 635.723 355.938 641.184 355.938H647.512V352.949C647.512 350.676 646.832 348.871 645.473 347.535C644.113 346.176 642.109 345.496 639.461 345.496C637.141 345.496 635.195 346.082 633.625 347.254C632.055 348.426 631.27 349.844 631.27 351.508H624.73C624.73 349.609 625.398 347.781 626.734 346.023C628.094 344.242 629.922 342.836 632.219 341.805C634.539 340.773 637.082 340.258 639.848 340.258C644.23 340.258 647.664 341.359 650.148 343.562C652.633 345.742 653.922 348.754 654.016 352.598V370.105C654.016 373.598 654.461 376.375 655.352 378.438V379H648.531ZM637.738 374.043C639.777 374.043 641.711 373.516 643.539 372.461C645.367 371.406 646.691 370.035 647.512 368.348V360.543H642.414C634.445 360.543 630.461 362.875 630.461 367.539C630.461 369.578 631.141 371.172 632.5 372.32C633.859 373.469 635.605 374.043 637.738 374.043ZM693.285 340.961V379H686.746V364.199H676.938L667.973 379H660.941L670.504 363.215C668.066 362.324 666.191 360.953 664.879 359.102C663.59 357.227 662.945 355.047 662.945 352.562C662.945 349.094 664.246 346.305 666.848 344.195C669.449 342.062 672.93 340.984 677.289 340.961H693.285ZM669.484 352.633C669.484 354.484 670.117 355.984 671.383 357.133C672.648 358.258 674.324 358.832 676.41 358.855H686.746V346.234H677.395C674.98 346.234 673.059 346.832 671.629 348.027C670.199 349.199 669.484 350.734 669.484 352.633ZM742.504 351.367C742.504 349.586 741.824 348.18 740.465 347.148C739.105 346.094 737.242 345.566 734.875 345.566C732.578 345.566 730.656 346.164 729.109 347.359C727.586 348.555 726.824 349.961 726.824 351.578H720.355C720.355 348.273 721.738 345.566 724.504 343.457C727.27 341.348 730.727 340.293 734.875 340.293C739.328 340.293 742.797 341.254 745.281 343.176C747.766 345.074 749.008 347.793 749.008 351.332C749.008 353.043 748.492 354.613 747.461 356.043C746.43 357.473 744.965 358.609 743.066 359.453C747.496 360.953 749.711 363.906 749.711 368.312C749.711 371.805 748.363 374.57 745.668 376.609C742.973 378.648 739.375 379.668 734.875 379.668C730.492 379.668 726.871 378.602 724.012 376.469C721.176 374.312 719.758 371.406 719.758 367.75H726.227C726.227 369.602 727.047 371.195 728.688 372.531C730.352 373.844 732.414 374.5 734.875 374.5C737.359 374.5 739.363 373.926 740.887 372.777C742.41 371.629 743.172 370.141 743.172 368.312C743.172 366.18 742.527 364.656 741.238 363.742C739.973 362.805 737.992 362.336 735.297 362.336H728.793V356.852H735.859C740.289 356.734 742.504 354.906 742.504 351.367ZM756.426 359.629C756.426 355.902 757.152 352.551 758.605 349.574C760.082 346.598 762.121 344.301 764.723 342.684C767.348 341.066 770.336 340.258 773.688 340.258C778.867 340.258 783.051 342.051 786.238 345.637C789.449 349.223 791.055 353.992 791.055 359.945V360.402C791.055 364.105 790.34 367.434 788.91 370.387C787.504 373.316 785.477 375.602 782.828 377.242C780.203 378.883 777.18 379.703 773.758 379.703C768.602 379.703 764.418 377.91 761.207 374.324C758.02 370.738 756.426 365.992 756.426 360.086V359.629ZM762.965 360.402C762.965 364.621 763.938 368.008 765.883 370.562C767.852 373.117 770.477 374.395 773.758 374.395C777.062 374.395 779.688 373.105 781.633 370.527C783.578 367.926 784.551 364.293 784.551 359.629C784.551 355.457 783.555 352.082 781.562 349.504C779.594 346.902 776.969 345.602 773.688 345.602C770.477 345.602 767.887 346.879 765.918 349.434C763.949 351.988 762.965 355.645 762.965 360.402ZM830.289 379H823.785V362.758H806.312V379H799.773V340.961H806.312V357.449H823.785V340.961H830.289V379ZM864.25 379C863.875 378.25 863.57 376.914 863.336 374.992C860.312 378.133 856.703 379.703 852.508 379.703C848.758 379.703 845.676 378.648 843.262 376.539C840.871 374.406 839.676 371.711 839.676 368.453C839.676 364.492 841.176 361.422 844.176 359.242C847.199 357.039 851.441 355.938 856.902 355.938H863.23V352.949C863.23 350.676 862.551 348.871 861.191 347.535C859.832 346.176 857.828 345.496 855.18 345.496C852.859 345.496 850.914 346.082 849.344 347.254C847.773 348.426 846.988 349.844 846.988 351.508H840.449C840.449 349.609 841.117 347.781 842.453 346.023C843.812 344.242 845.641 342.836 847.938 341.805C850.258 340.773 852.801 340.258 855.566 340.258C859.949 340.258 863.383 341.359 865.867 343.562C868.352 345.742 869.641 348.754 869.734 352.598V370.105C869.734 373.598 870.18 376.375 871.07 378.438V379H864.25ZM853.457 374.043C855.496 374.043 857.43 373.516 859.258 372.461C861.086 371.406 862.41 370.035 863.23 368.348V360.543H858.133C850.164 360.543 846.18 362.875 846.18 367.539C846.18 369.578 846.859 371.172 848.219 372.32C849.578 373.469 851.324 374.043 853.457 374.043Z" fill="black"/>
</g>
<defs>
<clipPath id="clip0_102_22">
<rect width="1200" height="1200" fill="white"/>
</clipPath>
</defs>
</svg>
