<?xml version="1.0" encoding="iso-8859-1"?>
<svg version="1.1" id="Capa_1" xmlns="http://www.w3.org/2000/svg" xmlns:xlink="http://www.w3.org/1999/xlink" x="0px" y="0px"
	 viewBox="0 0 297 297" style="rotation: 100deg" xml:space="preserve">
<g>
	<circle cx="148.5" cy="105.447" r="17.221" fill="#ffffff" />
	<path d="M202.283,122.668c0-68.971-50.149-119.913-52.284-122.047C149.599,0.222,149.066,0,148.5,0s-1.099,0.222-1.501,0.622
		c-2.133,2.133-52.282,53.075-52.282,122.046v68.885c0,16.434,7.428,31.147,19.082,41.019c4.56-14.835,18.39-25.651,34.701-25.651
		c16.321,0,30.155,10.828,34.708,25.677c11.659-9.872,19.075-24.605,19.075-41.044V122.668z M148.5,133.266
		c-15.34,0-27.819-12.478-27.819-27.818c0-15.34,12.479-27.819,27.819-27.819s27.819,12.479,27.819,27.819
		C176.319,120.787,163.84,133.266,148.5,133.266z" fill="#ffffff"/>
	<path d="M148.5,223.876c-10.665,0-19.341,8.676-19.341,19.341c0,4.58,4.552,21.068,17.379,52.466
		c0.328,0.8,1.097,1.317,1.962,1.317s1.634-0.518,1.961-1.317c12.828-31.397,17.38-47.886,17.38-52.466
		C167.841,232.552,159.165,223.876,148.5,223.876z" fill="#ffffff"/>
	<path d="M224.879,218.502l-8.174-8.174c-4.366,15.828-14.114,29.442-27.139,38.761v11.349c0,2.811,1.116,5.506,3.104,7.494
		l17.221,17.222c2.028,2.027,4.738,3.104,7.496,3.104c1.365,0,2.743-0.264,4.054-0.806c3.96-1.641,6.542-5.506,6.542-9.792v-51.663
		C227.982,223.185,226.866,220.49,224.879,218.502z" fill="#ffffff"/>
	<path d="M80.295,210.328l-8.174,8.174c-1.987,1.988-3.104,4.683-3.104,7.494v51.663c0,4.286,2.582,8.151,6.542,9.792
		c1.311,0.542,2.688,0.806,4.054,0.806c2.758,0,5.468-1.076,7.496-3.104l17.221-17.222c1.987-1.988,3.104-4.683,3.104-7.494v-11.336
		C94.407,239.781,84.66,226.161,80.295,210.328z" fill="#ffffff"/>
</g>
<g>
</g>
<g>
</g>
<g>
</g>
<g>
</g>
<g>
</g>
<g>
</g>
<g>
</g>
<g>
</g>
<g>
</g>
<g>
</g>
<g>
</g>
<g>
</g>
<g>
</g>
<g>
</g>
<g>
</g>
</svg>
